<svg width="30" height="23" viewBox="0 0 30 23" fill="none" xmlns="http://www.w3.org/2000/svg">
<g id="Group 7310 1">
<g id="Group 7310">
<g id="Clip path group">
<mask id="mask0_322_8904" style="mask-type:luminance" maskUnits="userSpaceOnUse" x="0" y="0" width="30" height="23">
<g id="clip-path">
<path id="Rectangle 8701" d="M30 0H0V22.9985H30V0Z" fill="white"/>
</g>
</mask>
<g mask="url(#mask0_322_8904)">
<g id="Group 6015">
<g id="Group 6014">
<g id="Clip path group_2">
<mask id="mask1_322_8904" style="mask-type:luminance" maskUnits="userSpaceOnUse" x="0" y="0" width="30" height="23">
<g id="clip-path_2">
<path id="Rectangle 8701_2" d="M30 0H0V22.9985H30V0Z" fill="white"/>
</g>
</mask>
<g mask="url(#mask1_322_8904)">
<g id="Group 6013">
<path id="Path 27700" d="M4.938 10.541H25.063C25.219 10.541 25.3734 10.5646 25.5175 10.6104C25.6616 10.6561 25.7925 10.7232 25.9027 10.8078C26.0129 10.8924 26.1003 10.9928 26.1599 11.1033C26.2195 11.2138 26.2501 11.3322 26.25 11.4518V11.5476C26.25 11.7889 26.1249 12.0204 25.9023 12.191C25.6797 12.3617 25.3778 12.4576 25.063 12.4576H4.938C4.78204 12.4577 4.62758 12.4342 4.48345 12.3885C4.33932 12.3428 4.20835 12.2758 4.09802 12.1913C3.98769 12.1068 3.90017 12.0064 3.84045 11.896C3.78074 11.7855 3.75 11.6671 3.75 11.5476V11.4518C3.74987 11.3321 3.78051 11.2137 3.84016 11.1031C3.89982 10.9926 3.98732 10.8921 4.09766 10.8075C4.20801 10.723 4.33902 10.6559 4.48322 10.6101C4.62741 10.5644 4.78195 10.5409 4.938 10.541Z" fill="white" stroke="white" stroke-width="0.4"/>
<path id="Path 27701" d="M4.938 15.3323H25.063C25.219 15.3323 25.3734 15.3558 25.5175 15.4016C25.6616 15.4474 25.7925 15.5145 25.9027 15.5991C26.0129 15.6837 26.1003 15.7841 26.1599 15.8945C26.2195 16.005 26.2501 16.1235 26.25 16.243V16.3388C26.25 16.5802 26.1249 16.8116 25.9023 16.9823C25.6797 17.1529 25.3778 17.2488 25.063 17.2488H4.938C4.78195 17.2489 4.62741 17.2254 4.48322 17.1797C4.33902 17.134 4.20801 17.0669 4.09766 16.9823C3.98732 16.8977 3.89982 16.7973 3.84016 16.6867C3.78051 16.5762 3.74987 16.4577 3.75 16.3381V16.2422C3.75 16.1227 3.78074 16.0043 3.84045 15.8938C3.90017 15.7834 3.98769 15.683 4.09802 15.5985C4.20835 15.514 4.33932 15.447 4.48345 15.4013C4.62758 15.3556 4.78204 15.3322 4.938 15.3323Z" fill="white" stroke="white" stroke-width="0.4"/>
<path id="Path 27702" d="M4.938 5.74951H25.063C25.3778 5.74951 25.6797 5.84538 25.9023 6.01604C26.1249 6.18669 26.25 6.41814 26.25 6.65948V6.75531C26.2501 6.87487 26.2195 6.99329 26.1599 7.10378C26.1003 7.21427 26.0129 7.31467 25.9027 7.39925C25.7925 7.48383 25.6616 7.55093 25.5175 7.59671C25.3734 7.64249 25.219 7.66605 25.063 7.66605H4.938C4.78204 7.66615 4.62758 7.64269 4.48345 7.597C4.33932 7.55132 4.20835 7.48431 4.09802 7.3998C3.98769 7.31529 3.90017 7.21494 3.84045 7.10449C3.78074 6.99403 3.75 6.87564 3.75 6.75608V6.65948C3.75 6.53992 3.78074 6.42153 3.84045 6.31108C3.90017 6.20062 3.98769 6.10027 4.09802 6.01577C4.20835 5.93126 4.33932 5.86424 4.48345 5.81856C4.62758 5.77287 4.78204 5.74941 4.938 5.74951Z" fill="white" stroke="white" stroke-width="0.4"/>
</g>
</g>
</g>
</g>
</g>
</g>
</g>
</g>
</g>
</svg>
