<svg width="188" height="23" viewBox="0 0 188 23" fill="none" xmlns="http://www.w3.org/2000/svg">
<g id="logo" clip-path="url(#clip0_322_8868)">
<path id="Vector" d="M28.9017 4.81542V8.31494H24.4927V6.05582C24.4927 5.01072 23.2269 4.16091 21.6517 4.16091H18.2904C17.4958 4.16091 16.7715 4.37732 16.2441 4.7468V1.23145H23.5293C26.4827 1.23145 28.8947 2.83605 28.8947 4.81542H28.9017Z" stroke="white" stroke-miterlimit="10"/>
<path id="Vector_2" d="M28.9018 10.6057H19.5352V13.5193H28.9018V10.6057Z" stroke="white" stroke-miterlimit="10"/>
<path id="Vector_3" fill-rule="evenodd" clip-rule="evenodd" d="M17.9667 19.4416C16.1524 19.4416 14.6898 18.5021 14.6898 17.3356V1.23145H0.351562V4.49344H9.61971V18.7343C9.61971 20.9195 12.3692 22.7036 15.7938 22.7036H19.1691V19.4416H17.9667Z" fill="white" stroke="white" stroke-miterlimit="10"/>
<path id="Vector_4" d="M129.367 14.1052V15.3192H135.956V14.1052H129.367ZM143.551 10.4421V15.3192H149.887V10.4421H143.551ZM129.367 10.4421V11.6561H135.956V10.4421H129.367ZM174.913 8.00879H178.106V15.3192H187.648V17.7578H177.923C177.093 17.7578 176.376 17.5309 175.785 17.0769C175.195 16.6283 174.906 16.0793 174.906 15.4407V8.00879H174.913ZM154.457 8.00879H157.594L159.963 14.1422L162.354 8.00879H165.68L168.071 14.1422L170.441 8.00879H173.584L169.632 17.7578H166.51L164.021 11.3764L161.546 17.7578H158.409L154.457 8.00879ZM143.234 8.00879H150.196C150.991 8.00879 151.673 8.2252 152.235 8.65274C152.791 9.08029 153.072 9.59756 153.072 10.2046V15.5462C153.072 16.1585 152.791 16.6758 152.235 17.1033C151.673 17.5361 150.991 17.7526 150.196 17.7526H143.234C142.44 17.7526 141.758 17.5361 141.195 17.1086C140.633 16.6811 140.365 16.1585 140.365 15.5462V10.2046C140.365 9.59756 140.64 9.08029 141.202 8.65274C141.765 8.2252 142.44 8.00879 143.234 8.00879ZM126.175 8.00879H136.118C136.948 8.00879 137.672 8.23576 138.263 8.68441C138.853 9.13835 139.149 9.68729 139.149 10.3154V11.7986C139.149 12.2103 139.008 12.5798 138.748 12.8965C139.008 13.2079 139.149 13.5721 139.149 13.9891V15.467C139.149 16.0952 138.86 16.6388 138.277 17.0875C137.693 17.5309 136.927 17.7578 135.963 17.7631H126.175V8.00879Z" stroke="white" stroke-linejoin="round"/>
<path id="Vector_5" fill-rule="evenodd" clip-rule="evenodd" d="M67.1697 10.2098V11.7775H74.5744V10.2098H67.1697ZM113.778 8.00879H123.833V10.2098H113.728V11.7775H123.833V13.9733H113.728V15.5673H123.805L123.833 17.7631H113.778C112.955 17.7631 112.259 17.5467 111.675 17.1086C111.091 16.6705 110.796 16.1479 110.796 15.5357V10.2362C110.796 9.62923 111.091 9.1014 111.675 8.6633C112.259 8.2252 112.955 8.00879 113.778 8.00879ZM95.3117 8.00879H98.244V15.5673H108.349V17.7631H98.2933C97.4705 17.7631 96.7673 17.5467 96.1907 17.1086C95.607 16.6705 95.3117 16.1479 95.3117 15.5357V8.00879ZM79.9328 8.00879H92.9068V10.2098H88.0125V17.742H85.0802V10.2098H79.9328V8.00879ZM64.2374 8.00879H74.5392C75.362 8.00879 76.0652 8.2252 76.6488 8.6633C77.2325 9.1014 77.5208 9.62923 77.5208 10.2362V11.7669C77.5208 12.1628 77.3872 12.5376 77.1059 12.8807C77.3872 13.2396 77.5208 13.6144 77.5208 14.005V17.7578H74.5744V13.9733H67.1697V17.7631H64.2374V8.00879ZM48.753 8.00879H51.6853V15.5673H58.8439V8.0299L61.7903 8.00879V15.5357C61.7903 16.1479 61.4949 16.6705 60.9113 17.1086C60.3276 17.5467 59.6244 17.7631 58.8087 17.7631H51.7345C50.9118 17.7631 50.2086 17.5467 49.6249 17.1086C49.0413 16.6705 48.753 16.1479 48.753 15.5357V8.00879ZM33.374 8.00879H46.348V10.2098H41.4538V17.742H38.5144V10.2098H33.374V8.00879Z" fill="white" stroke="white" stroke-miterlimit="10"/>
<path id="Vector_6" d="M28.9014 15.4988V18.7027C28.9014 20.6557 27.0802 22.292 24.6893 22.6351C24.3939 22.672 24.0845 22.7037 23.7681 22.7037H20.6318V19.4206H21.9679C23.4728 19.4206 24.6893 18.4757 24.6893 17.2934V15.4988H28.9014Z" stroke="white" stroke-miterlimit="8"/>
</g>
<defs>
<clipPath id="clip0_322_8868">
<rect width="188" height="22" fill="white" transform="translate(0 0.967529)"/>
</clipPath>
</defs>
</svg>
